<?xml version="1.0" encoding="UTF-8"?>
<svg id="Ebene_1" data-name="Ebene 1" xmlns="http://www.w3.org/2000/svg" xmlns:xlink="http://www.w3.org/1999/xlink" viewBox="0 0 1080 1080">
  <defs>
    <style>
      .cls-1 {
        fill: url(#Unbenannter_Verlauf_22);
      }
    </style>
    <linearGradient id="Unbenannter_Verlauf_22" data-name="Unbenannter Verlauf 22" x1="172.64" y1="907.74" x2="973.73" y2="106.65" gradientUnits="userSpaceOnUse">
      <stop offset="0" stop-color="#e22129"/>
      <stop offset="1" stop-color="#e18008"/>
    </linearGradient>
  </defs>
  <path class="cls-1" d="M468.72,38.2L141.64,227.04c-44.34,25.6-71.66,72.91-71.66,124.11v377.69c0,51.2,27.32,98.51,71.66,124.11l327.08,188.84c44.34,25.6,98.97,25.6,143.31,0l327.09-188.84c44.34-25.6,71.66-72.91,71.66-124.11v-377.69c0-51.2-27.32-98.51-71.66-124.11L612.03,38.2c-44.34-25.6-98.97-25.6-143.31,0ZM819.62,540l-139.63,241.83h-279.23l-139.62-241.83,139.62-241.83h279.23l139.63,241.83ZM239.36,502.27l-57.85-100.2L453.18,131.92l-213.82,370.35ZM357.2,781.83h-115.7l-98.12-370.34,213.82,370.34ZM658.22,819.56l-57.85,100.2-369.78-100.2h427.64ZM841.4,577.73l57.85,100.2-271.67,270.15,213.82-370.35ZM723.57,298.17h115.7l98.11,370.34-213.81-370.34ZM422.54,260.44l57.85-100.2,369.78,100.2h-427.63ZM499.91,126.44l47.37-82.06,309.73,178.82-357.1-96.76ZM161.99,368.27l-47.38-82.06L424.34,107.39,161.99,368.27ZM202.46,781.83h-94.75v-357.64l94.75,357.64ZM580.85,953.56l-47.38,82.06-309.72-178.82,357.1,96.76ZM918.77,711.73l47.37,82.05-309.72,178.82,262.35-260.87ZM878.3,298.17h94.75v357.65l-94.75-357.65Z"/>
</svg>